<?xml version="1.0" standalone="no"?>
<!DOCTYPE svg PUBLIC "-//W3C//DTD SVG 20010904//EN"
 "http://www.w3.org/TR/2001/REC-SVG-20010904/DTD/svg10.dtd">
<svg version="1.0" xmlns="http://www.w3.org/2000/svg"
 width="400.000000pt" height="400.000000pt" viewBox="0 0 400.000000 400.000000"
 preserveAspectRatio="xMidYMid meet">
<metadata>
Created by potrace 1.11, written by Peter Selinger 2001-2013
</metadata>
<g transform="translate(0.000000,400.000000) scale(0.100000,-0.100000)"
fill="#000000" stroke="none">
<path d="M1780 3875 c-69 -69 -131 -125 -138 -125 -8 0 -10 -5 -6 -12 5 -8 2
-9 -10 -5 -9 4 -15 3 -11 -2 3 -5 -1 -16 -9 -24 -16 -16 -19 -117 -4 -117 4 0
8 4 8 10 0 5 15 1 33 -9 17 -10 31 -24 29 -30 -1 -6 2 -11 6 -11 5 0 9 -7 9
-15 0 -8 -4 -12 -9 -9 -4 3 -16 0 -25 -6 -14 -8 -14 -10 -3 -9 30 3 40 -1 40
-17 0 -14 -3 -14 -15 -4 -13 11 -14 10 -9 -4 3 -9 14 -16 23 -17 9 0 11 -3 4
-5 -6 -3 -9 -18 -6 -35 2 -17 0 -29 -6 -29 -6 0 -11 -5 -11 -11 0 -6 6 -9 14
-6 12 5 12 0 5 -26 -11 -39 -11 -40 1 -32 5 3 7 0 5 -7 -11 -28 -11 -88 -1
-92 8 -3 7 -5 0 -5 -7 -1 -9 -12 -6 -27 4 -21 2 -25 -9 -19 -11 6 -12 5 -1 -6
17 -18 15 -29 -5 -30 -12 -1 -10 -4 7 -9 14 -4 19 -8 11 -9 -11 -1 -11 -4 0
-18 12 -15 12 -16 -3 -10 -10 3 -18 2 -18 -3 0 -6 5 -10 10 -10 6 0 10 -5 10
-11 0 -5 -4 -8 -8 -5 -4 2 -14 0 -22 -5 -12 -8 -11 -9 4 -7 10 2 21 -3 24 -11
3 -8 0 -11 -7 -7 -6 4 -11 3 -11 -2 0 -6 7 -12 15 -16 11 -4 13 -11 6 -28 -4
-13 -6 -28 -4 -35 2 -6 -4 -13 -14 -16 -17 -4 -17 -5 0 -6 12 -1 17 -9 16 -33
0 -28 -2 -30 -9 -13 -8 19 -9 19 -9 -1 -1 -12 6 -24 14 -28 11 -4 13 -11 6
-28 -4 -13 -6 -28 -4 -35 2 -6 -4 -13 -14 -16 -17 -4 -17 -5 0 -6 12 -1 17 -9
16 -33 0 -28 -2 -30 -9 -13 -8 19 -9 19 -9 -1 -1 -12 6 -24 14 -28 11 -4 13
-11 6 -28 -4 -13 -6 -28 -4 -35 2 -6 -4 -13 -14 -16 -17 -4 -17 -5 0 -6 12 -1
17 -9 16 -33 0 -28 -2 -30 -9 -13 -8 19 -9 19 -9 -1 -1 -12 6 -24 14 -28 11
-4 13 -11 6 -28 -4 -13 -6 -28 -4 -35 2 -6 -4 -13 -14 -16 -17 -4 -17 -5 0 -6
14 -1 17 -10 16 -53 -1 -29 -7 -59 -13 -67 -8 -11 -8 -13 1 -8 9 6 12 -2 11
-27 -1 -22 -5 -33 -12 -30 -6 3 -2 -2 8 -10 23 -18 15 -21 -17 -5 -21 10 -21
9 2 -10 13 -12 21 -27 18 -35 -3 -8 -1 -17 6 -20 9 -3 9 -5 -1 -5 -7 -1 -17
10 -22 24 -5 14 -12 25 -15 25 -10 0 16 -54 33 -67 16 -13 15 -14 -5 -8 -12 3
-24 1 -28 -4 -4 -7 1 -8 11 -4 13 5 15 3 9 -7 -5 -9 -4 -11 3 -6 8 5 10 -8 8
-43 -1 -28 1 -48 6 -45 4 3 5 -1 3 -8 -11 -28 -11 -88 -1 -92 8 -3 7 -5 0 -5
-7 -1 -9 -12 -6 -27 4 -21 2 -25 -9 -19 -11 6 -12 5 -1 -6 17 -18 15 -29 -5
-30 -12 -1 -10 -4 7 -9 14 -4 19 -8 11 -9 -11 -1 -11 -4 0 -18 12 -15 12 -16
-3 -10 -10 3 -18 2 -18 -3 0 -6 5 -10 10 -10 6 0 10 -5 10 -11 0 -5 -4 -8 -8
-5 -4 2 -14 0 -22 -5 -12 -8 -11 -9 4 -7 10 2 21 -3 24 -11 3 -8 0 -11 -7 -7
-6 4 -11 3 -11 -2 0 -6 7 -12 15 -16 11 -4 13 -11 6 -28 -4 -13 -6 -28 -4 -35
2 -6 -4 -13 -14 -16 -17 -4 -17 -5 0 -6 12 -1 17 -9 16 -33 0 -28 -2 -30 -9
-13 -8 19 -9 19 -9 -1 -1 -12 6 -24 14 -28 11 -4 13 -11 6 -28 -4 -13 -6 -28
-4 -35 2 -6 -4 -13 -14 -16 -16 -4 -17 -5 -1 -6 15 -1 18 -10 17 -56 -1 -41
-6 -55 -18 -58 -14 -4 -14 -5 1 -6 13 -1 17 -9 16 -36 -1 -21 -5 -32 -12 -29
-6 3 -2 -2 8 -10 23 -18 15 -21 -17 -5 l-22 10 21 -18 c25 -22 39 -64 18 -56
-8 3 -14 0 -14 -6 0 -6 4 -11 9 -11 5 0 8 -8 6 -17 -2 -10 -4 -22 -4 -27 -1
-4 -9 -6 -19 -4 -11 3 -19 0 -19 -8 0 -7 5 -10 10 -7 6 3 7 1 3 -5 -4 -7 -13
-12 -20 -12 -8 0 -16 -10 -19 -21 -4 -14 -11 -20 -21 -16 -9 4 -13 1 -11 -6
11 -33 12 -77 2 -77 -27 0 13 -21 41 -22 20 -1 29 -5 25 -12 -4 -6 1 -4 12 4
16 14 17 13 11 -7 -4 -13 -2 -24 5 -29 7 -4 9 -3 6 4 -11 17 4 42 24 42 10 0
19 -4 19 -9 0 -5 7 -12 16 -15 14 -5 15 -4 4 8 -10 13 -5 15 38 14 28 -1 49
-5 47 -8 -2 -3 6 -12 18 -19 18 -11 20 -11 10 0 -19 19 -16 29 7 29 11 0 20
-6 20 -12 0 -9 2 -10 8 -2 8 13 184 15 176 2 -3 -4 0 -8 5 -8 6 0 11 5 11 10
0 6 9 10 20 10 11 0 20 -4 20 -10 0 -5 5 -10 11 -10 5 0 8 4 4 10 -3 5 10 8
32 7 21 -2 46 1 56 5 10 5 17 5 17 -1 0 -6 -8 -15 -17 -20 -10 -6 -13 -10 -8
-10 12 0 46 24 42 30 -1 2 4 -2 11 -10 10 -13 12 -12 12 3 0 9 5 14 10 11 6
-4 19 -1 28 7 15 12 16 11 3 -4 -17 -23 -8 -23 14 -1 14 13 21 14 36 5 23 -15
29 -15 29 -1 0 5 -4 7 -10 4 -5 -3 -10 1 -10 10 0 9 5 13 11 10 5 -4 21 -8 33
-9 19 -2 22 1 18 18 -4 20 -4 20 10 2 8 -10 21 -16 29 -13 10 4 9 6 -3 6 -27
1 -22 26 8 39 14 7 23 8 20 3 -3 -5 1 -11 9 -14 9 -4 12 -1 9 8 -5 13 24 55
38 55 12 0 5 -24 -12 -37 -13 -10 -13 -14 -1 -25 12 -11 13 -11 6 0 -4 8 0 19
11 27 11 8 15 15 10 15 -5 0 -2 8 5 17 12 14 12 16 -1 9 -8 -4 -5 2 8 13 13
11 32 30 43 43 11 13 18 18 15 11 -4 -6 -1 -15 5 -19 8 -4 9 -3 5 4 -4 7 -3
12 3 12 6 0 7 7 4 17 -4 11 -3 14 5 9 7 -4 12 -2 12 4 0 16 62 76 74 72 6 -2
8 0 4 4 -10 9 12 35 23 28 5 -3 8 -1 7 3 -2 5 34 49 79 98 48 51 97 117 118
156 20 38 35 70 34 71 0 2 4 23 11 48 7 25 14 70 15 100 2 30 7 63 10 73 4 9
3 17 -1 17 -9 0 -9 369 0 377 3 3 1 16 -4 29 -6 15 -6 24 0 24 6 0 6 9 1 23
-5 13 -6 30 -1 37 5 7 4 24 -1 37 -5 14 -5 23 1 23 6 0 6 9 1 23 -6 14 -5 30
2 42 6 11 6 20 1 22 -9 3 -9 371 0 380 3 3 1 16 -4 29 -6 15 -6 24 0 24 6 0 6
9 1 23 -5 13 -6 30 -1 37 5 7 4 24 -1 37 -5 14 -5 23 1 23 6 0 6 9 1 23 -6 14
-5 30 1 41 6 10 6 21 2 25 -5 3 -9 87 -9 186 -1 152 -5 230 -15 243 -2 1 -3 5
-4 10 -17 75 -78 176 -142 236 -65 60 -71 65 -78 59 -3 -4 -6 -2 -6 4 0 16
-118 65 -187 79 -40 7 -183 12 -391 13 l-327 1 -125 -125z m510 -313 c0 -5 18
-16 40 -26 22 -10 40 -21 40 -26 0 -5 -6 -7 -14 -4 -8 3 -17 0 -21 -6 -4 -7 0
-10 11 -8 12 2 18 -2 16 -11 -3 -12 0 -12 12 -2 12 10 19 10 38 -3 20 -14 18
-21 -5 -17 -4 1 -3 -7 2 -18 6 -10 7 -22 3 -26 -4 -4 3 -4 15 -1 16 5 25 1 35
-16 15 -29 17 -40 6 -55 -6 -7 -4 -14 3 -19 8 -5 9 -3 4 6 -5 8 -4 11 2 7 5
-4 11 -19 12 -34 1 -15 3 -39 4 -53 2 -16 -4 -29 -17 -36 -19 -11 -19 -12 0
-18 18 -6 20 -14 19 -94 -1 -48 2 -95 8 -106 6 -13 6 -16 -3 -11 -9 5 -11 -2
-7 -28 2 -19 8 -41 12 -47 5 -8 4 -11 -2 -7 -6 4 -13 -2 -16 -13 -3 -11 -2
-20 2 -20 4 0 7 -39 6 -87 -1 -49 2 -96 8 -107 6 -13 6 -16 -3 -11 -9 5 -11
-2 -7 -28 2 -19 8 -41 12 -47 5 -8 4 -11 -2 -7 -6 4 -13 -2 -16 -13 -3 -11 -2
-20 2 -20 4 0 7 -39 6 -87 -1 -49 2 -96 8 -107 6 -13 6 -16 -3 -11 -9 5 -11
-2 -7 -28 2 -19 8 -41 12 -47 5 -8 4 -11 -2 -7 -6 4 -13 -2 -16 -13 -3 -11 -2
-20 2 -20 4 0 7 -39 6 -87 -1 -49 2 -96 8 -107 6 -13 6 -16 -3 -11 -9 5 -11
-2 -7 -28 2 -19 8 -41 12 -47 5 -8 4 -11 -2 -7 -6 4 -13 -2 -16 -13 -3 -11 -2
-20 2 -20 4 0 7 -39 6 -87 -1 -49 2 -96 8 -107 6 -13 6 -16 -3 -11 -9 5 -11
-2 -7 -28 2 -19 8 -41 12 -47 5 -8 4 -11 -2 -7 -6 4 -13 -2 -16 -13 -3 -11 -2
-20 2 -20 4 0 7 -29 7 -65 -1 -53 -4 -66 -18 -71 -10 -3 -18 -13 -17 -22 0
-11 2 -12 6 -4 2 6 10 9 15 6 7 -4 8 -2 4 4 -4 7 -2 12 3 12 6 0 9 -10 7 -22
-2 -19 -9 -23 -35 -22 -17 0 -31 -4 -31 -9 0 -5 -6 -4 -13 2 -8 6 -17 8 -20 5
-7 -7 -126 -9 -132 -2 -5 5 -8 338 -3 343 1 2 1 146 -2 320 -3 174 -3 318 0
320 3 2 3 146 0 320 -3 174 -3 318 0 320 3 2 3 80 0 175 -3 94 -3 173 -1 176
8 8 6 84 -3 84 -5 0 -3 7 4 15 7 8 9 15 4 15 -5 0 0 8 11 17 17 13 17 15 2 10
-15 -6 -17 -2 -13 21 6 34 4 32 16 32 6 0 10 -4 10 -8z m160 -128 c0 -2 -7 -4
-15 -4 -8 0 -15 4 -15 10 0 5 7 7 15 4 8 -4 15 -8 15 -10z m-10 -2398 c0 -3
-4 -8 -10 -11 -5 -3 -10 -1 -10 4 0 6 5 11 10 11 6 0 10 -2 10 -4z"/>
<path d="M2278 3533 c7 -3 16 -2 19 1 4 3 -2 6 -13 5 -11 0 -14 -3 -6 -6z"/>
<path d="M2305 3519 c-3 -4 2 -6 10 -5 21 3 28 13 10 13 -9 0 -18 -4 -20 -8z"/>
<path d="M2380 3465 c-7 -9 -8 -15 -2 -15 5 0 12 7 16 15 3 8 4 15 2 15 -2 0
-9 -7 -16 -15z"/>
<path d="M2437 3403 c-3 -5 4 -15 16 -23 21 -12 21 -12 7 6 -8 10 -15 20 -16
22 -1 2 -4 -1 -7 -5z"/>
<path d="M2410 3380 c0 -5 5 -10 11 -10 5 0 7 5 4 10 -3 6 -8 10 -11 10 -2 0
-4 -4 -4 -10z"/>
<path d="M2439 3368 c-5 -15 -4 -50 1 -53 3 -2 6 9 6 26 0 24 -3 37 -7 27z"/>
<path d="M2460 3305 c0 -5 5 -17 10 -25 5 -8 10 -10 10 -5 0 6 -5 17 -10 25
-5 8 -10 11 -10 5z"/>
<path d="M2450 3260 c0 -5 5 -10 11 -10 5 0 7 5 4 10 -3 6 -8 10 -11 10 -2 0
-4 -4 -4 -10z"/>
<path d="M2455 3230 c-3 -6 1 -7 9 -4 18 7 21 14 7 14 -6 0 -13 -4 -16 -10z"/>
<path d="M2467 3179 c7 -7 15 -10 18 -7 3 3 -2 9 -12 12 -14 6 -15 5 -6 -5z"/>
<path d="M2468 3133 c7 -3 16 -2 19 1 4 3 -2 6 -13 5 -11 0 -14 -3 -6 -6z"/>
<path d="M2453 3075 c0 -7 6 -11 14 -8 7 3 13 6 13 8 0 2 -6 5 -13 8 -8 3 -14
-1 -14 -8z"/>
<path d="M2475 3050 c-4 -6 -11 -8 -16 -5 -5 4 -9 4 -9 1 0 -3 8 -10 18 -15
14 -7 18 -6 18 10 0 22 -2 23 -11 9z"/>
<path d="M2462 3006 c10 -7 14 -17 10 -21 -4 -5 -1 -5 6 -1 19 11 14 23 -10
29 -21 5 -21 5 -6 -7z"/>
<path d="M2468 2943 c7 -3 16 -2 19 1 4 3 -2 6 -13 5 -11 0 -14 -3 -6 -6z"/>
<path d="M2471 2907 c-13 -21 -12 -21 5 -5 10 10 16 20 13 22 -3 3 -11 -5 -18
-17z"/>
<path d="M2467 2859 c7 -7 15 -10 18 -7 3 3 -2 9 -12 12 -14 6 -15 5 -6 -5z"/>
<path d="M2468 2813 c7 -3 16 -2 19 1 4 3 -2 6 -13 5 -11 0 -14 -3 -6 -6z"/>
<path d="M2453 2755 c0 -7 6 -11 14 -8 7 3 13 6 13 8 0 2 -6 5 -13 8 -8 3 -14
-1 -14 -8z"/>
<path d="M2475 2730 c-4 -6 -11 -8 -16 -5 -5 4 -9 4 -9 1 0 -3 8 -10 18 -15
14 -7 18 -6 18 10 0 22 -2 23 -11 9z"/>
<path d="M2462 2686 c10 -7 14 -17 10 -21 -4 -5 -1 -5 6 -1 19 11 14 23 -10
29 -21 5 -21 5 -6 -7z"/>
<path d="M2468 2623 c7 -3 16 -2 19 1 4 3 -2 6 -13 5 -11 0 -14 -3 -6 -6z"/>
<path d="M2471 2587 c-13 -21 -12 -21 5 -5 10 10 16 20 13 22 -3 3 -11 -5 -18
-17z"/>
<path d="M2467 2539 c7 -7 15 -10 18 -7 3 3 -2 9 -12 12 -14 6 -15 5 -6 -5z"/>
<path d="M2468 2493 c7 -3 16 -2 19 1 4 3 -2 6 -13 5 -11 0 -14 -3 -6 -6z"/>
<path d="M2453 2435 c0 -7 6 -11 14 -8 7 3 13 6 13 8 0 2 -6 5 -13 8 -8 3 -14
-1 -14 -8z"/>
<path d="M2475 2410 c-4 -6 -11 -8 -16 -5 -5 4 -9 4 -9 1 0 -3 8 -10 18 -15
14 -7 18 -6 18 10 0 22 -2 23 -11 9z"/>
<path d="M2462 2366 c10 -7 14 -17 10 -21 -4 -5 -1 -5 6 -1 19 11 14 23 -10
29 -21 5 -21 5 -6 -7z"/>
<path d="M2468 2303 c7 -3 16 -2 19 1 4 3 -2 6 -13 5 -11 0 -14 -3 -6 -6z"/>
<path d="M2471 2267 c-13 -21 -12 -21 5 -5 10 10 16 20 13 22 -3 3 -11 -5 -18
-17z"/>
<path d="M2467 2219 c7 -7 15 -10 18 -7 3 3 -2 9 -12 12 -14 6 -15 5 -6 -5z"/>
<path d="M2468 2173 c7 -3 16 -2 19 1 4 3 -2 6 -13 5 -11 0 -14 -3 -6 -6z"/>
<path d="M2453 2115 c0 -7 6 -11 14 -8 7 3 13 6 13 8 0 2 -6 5 -13 8 -8 3 -14
-1 -14 -8z"/>
<path d="M2475 2090 c-4 -6 -11 -8 -16 -5 -5 4 -9 4 -9 1 0 -3 8 -10 18 -15
14 -7 18 -6 18 10 0 22 -2 23 -11 9z"/>
<path d="M2462 2046 c10 -7 14 -17 10 -21 -4 -5 -1 -5 6 -1 19 11 14 23 -10
29 -21 5 -21 5 -6 -7z"/>
<path d="M2468 1983 c7 -3 16 -2 19 1 4 3 -2 6 -13 5 -11 0 -14 -3 -6 -6z"/>
<path d="M2471 1947 c-13 -21 -12 -21 5 -5 10 10 16 20 13 22 -3 3 -11 -5 -18
-17z"/>
<path d="M2467 1899 c7 -7 15 -10 18 -7 3 3 -2 9 -12 12 -14 6 -15 5 -6 -5z"/>
<path d="M2468 1853 c7 -3 16 -2 19 1 4 3 -2 6 -13 5 -11 0 -14 -3 -6 -6z"/>
<path d="M2453 1795 c0 -7 6 -11 14 -8 7 3 13 6 13 8 0 2 -6 5 -13 8 -8 3 -14
-1 -14 -8z"/>
<path d="M2475 1770 c-4 -6 -11 -8 -16 -5 -5 4 -9 4 -9 1 0 -3 8 -10 18 -15
14 -7 18 -6 18 10 0 22 -2 23 -11 9z"/>
<path d="M2462 1726 c10 -7 14 -17 10 -21 -4 -5 -1 -5 6 -1 19 11 14 23 -10
29 -21 5 -21 5 -6 -7z"/>
<path d="M2468 1663 c7 -3 16 -2 19 1 4 3 -2 6 -13 5 -11 0 -14 -3 -6 -6z"/>
<path d="M2471 1627 c-13 -21 -12 -21 5 -5 10 10 16 20 13 22 -3 3 -11 -5 -18
-17z"/>
<path d="M2467 1579 c7 -7 15 -10 18 -7 3 3 -2 9 -12 12 -14 6 -15 5 -6 -5z"/>
<path d="M2468 1533 c7 -3 16 -2 19 1 4 3 -2 6 -13 5 -11 0 -14 -3 -6 -6z"/>
<path d="M2455 1470 c-3 -6 1 -7 9 -4 18 7 21 14 7 14 -6 0 -13 -4 -16 -10z"/>
<path d="M1575 3629 c-4 -6 -5 -12 -2 -15 2 -3 7 2 10 11 7 17 1 20 -8 4z"/>
<path d="M1615 3580 c-3 -5 -1 -10 4 -10 6 0 11 5 11 10 0 6 -2 10 -4 10 -3 0
-8 -4 -11 -10z"/>
<path d="M1639 3563 c-12 -14 -12 -16 0 -8 11 6 13 4 8 -8 -4 -11 -2 -14 8
-11 7 3 12 12 11 19 -3 24 -12 26 -27 8z"/>
<path d="M1584 3543 c4 -4 16 -8 28 -10 28 -4 18 6 -12 12 -12 2 -20 1 -16 -2z"/>
<path d="M1656 3457 c3 -10 9 -15 12 -12 3 3 0 11 -7 18 -10 9 -11 8 -5 -6z"/>
<path d="M1630 3416 c0 -2 8 -10 18 -17 15 -13 16 -12 3 4 -13 16 -21 21 -21
13z"/>
<path d="M1657 3316 c-4 -10 -1 -13 8 -9 8 3 12 9 9 14 -7 12 -11 11 -17 -5z"/>
<path d="M1655 3280 c-3 -6 1 -7 9 -4 18 7 21 14 7 14 -6 0 -13 -4 -16 -10z"/>
<path d="M1639 3233 c-13 -17 -13 -17 5 -3 18 14 19 13 12 -5 -6 -16 -5 -18 5
-7 9 8 10 15 3 22 -8 8 -15 5 -25 -7z"/>
<path d="M1665 3200 c-3 -5 -1 -10 4 -10 6 0 11 5 11 10 0 6 -2 10 -4 10 -3 0
-8 -4 -11 -10z"/>
<path d="M1650 3160 c0 -5 5 -10 11 -10 5 0 7 5 4 10 -3 6 -8 10 -11 10 -2 0
-4 -4 -4 -10z"/>
<path d="M988 3028 c-71 -70 -134 -126 -139 -122 -5 3 -6 10 -3 16 4 7 2 8 -5
4 -8 -5 -9 -12 -2 -19 6 -8 5 -19 -5 -31 -8 -11 -14 -16 -14 -10 0 5 -4 3 -9
-4 -4 -8 -7 -27 -5 -43 2 -16 -1 -29 -6 -29 -6 0 -2 -8 8 -18 10 -11 20 -14
24 -8 8 13 45 -19 62 -54 14 -28 15 -137 2 -159 -6 -10 -5 -12 2 -7 7 4 12 3
12 -2 0 -17 -13 -22 -29 -9 -14 11 -14 10 -2 -5 7 -10 17 -15 22 -12 5 3 9 -2
9 -11 0 -12 -4 -13 -18 -6 -14 7 -19 6 -19 -3 0 -7 7 -13 16 -12 13 1 16 -23
17 -176 1 -159 0 -176 -15 -171 -15 4 -15 4 0 -6 12 -8 16 -25 15 -69 -1 -32
-6 -64 -11 -71 -5 -9 -4 -12 2 -8 6 4 13 -4 16 -18 2 -14 2 -27 -2 -29 -3 -2
-6 -57 -5 -123 0 -65 -4 -126 -9 -137 -6 -12 -5 -16 1 -12 5 3 12 -6 15 -19 2
-14 1 -27 -2 -29 -4 -3 -6 -40 -5 -83 0 -43 -3 -86 -9 -97 -6 -13 -6 -16 2
-12 6 4 11 3 11 -2 0 -17 -13 -22 -29 -9 -14 11 -14 10 -2 -5 7 -10 17 -15 22
-12 5 3 9 -2 9 -11 0 -12 -4 -13 -18 -6 -14 7 -19 6 -19 -3 0 -7 7 -13 16 -12
13 1 16 -12 17 -74 0 -41 -4 -83 -9 -94 -6 -12 -5 -16 1 -12 5 3 12 -6 15 -19
2 -14 1 -27 -2 -29 -4 -3 -6 -40 -5 -83 0 -43 -3 -86 -9 -97 -6 -13 -6 -16 2
-12 6 4 11 3 11 -2 0 -17 -13 -22 -29 -9 -14 11 -14 10 -2 -5 7 -10 17 -15 22
-12 5 3 9 -2 9 -11 0 -12 -4 -13 -18 -6 -14 7 -19 6 -19 -3 0 -7 7 -13 16 -12
12 1 16 -9 17 -39 0 -22 -5 -46 -10 -54 -8 -11 -8 -13 2 -7 6 4 12 3 12 -2 0
-17 -13 -22 -29 -9 -14 11 -14 10 -2 -5 7 -10 17 -15 22 -12 5 3 9 -2 9 -11 0
-12 -4 -13 -18 -6 -14 7 -19 6 -19 -3 0 -7 7 -13 16 -12 13 1 16 -12 17 -74 0
-41 -4 -83 -9 -94 -6 -12 -5 -16 1 -12 5 3 12 -6 15 -19 2 -14 1 -27 -3 -30
-3 -2 -6 -37 -4 -77 1 -50 -1 -67 -7 -53 -8 16 -8 14 -5 -10 4 -25 -3 -37 -40
-72 -24 -24 -44 -48 -44 -53 0 -6 -6 -8 -12 -4 -7 4 -10 4 -6 -1 4 -4 2 -15
-5 -24 -11 -14 -10 -14 6 -2 16 12 17 11 16 -15 -1 -16 -1 -33 0 -39 0 -6 106
-10 294 -9 194 0 297 -3 306 -10 10 -8 13 -8 8 0 -7 13 271 13 292 0 8 -6 12
-5 8 0 -3 5 17 10 44 11 27 1 49 -3 49 -8 0 -5 73 65 163 155 l162 165 -1 193
c-1 106 -2 196 -3 199 -2 13 -93 6 -98 -8 -3 -7 -8 -13 -12 -13 -10 0 -161
-152 -161 -162 0 -4 -5 -8 -10 -8 -6 0 -26 -16 -46 -35 -19 -19 -39 -35 -45
-35 -6 0 -7 -4 -4 -10 3 -5 -5 -12 -18 -15 -30 -8 -246 -12 -255 -5 -4 3 -7
550 -7 1216 l0 1212 48 45 c26 26 47 55 47 66 0 12 6 21 13 21 9 0 9 2 -1 9
-8 4 -13 11 -13 15 1 3 1 10 1 14 0 5 -102 9 -226 9 l-227 0 -129 -129z"/>
<path d="M1633 3125 c0 -8 4 -15 9 -15 4 0 8 4 8 9 0 6 -4 12 -8 15 -5 3 -9
-1 -9 -9z"/>
<path d="M1646 2958 c3 -4 9 -8 15 -8 5 0 9 4 9 8 0 5 -7 9 -15 9 -8 0 -12 -4
-9 -9z"/>
<path d="M1635 2920 c3 -5 8 -10 11 -10 2 0 4 5 4 10 0 6 -5 10 -11 10 -5 0
-7 -4 -4 -10z"/>
<path d="M1646 2798 c3 -4 9 -8 15 -8 5 0 9 4 9 8 0 5 -7 9 -15 9 -8 0 -12 -4
-9 -9z"/>
<path d="M773 2756 c-3 -6 -3 -8 2 -4 4 4 13 3 20 -2 8 -7 12 -5 12 3 0 16
-25 18 -34 3z"/>
<path d="M1635 2760 c3 -5 8 -10 11 -10 2 0 4 5 4 10 0 6 -5 10 -11 10 -5 0
-7 -4 -4 -10z"/>
<path d="M854 2743 c11 -13 14 -23 8 -23 -6 0 -14 5 -17 10 -3 6 -12 10 -18 9
-9 0 -8 -2 1 -6 6 -2 10 -8 8 -12 -3 -4 0 -8 7 -8 7 0 19 -3 27 -5 8 -3 12 -3
7 -1 -4 3 -5 8 -2 13 2 4 -5 16 -18 26 l-22 19 19 -22z"/>
<path d="M853 2685 c0 -8 4 -12 9 -9 5 3 6 10 3 15 -9 13 -12 11 -12 -6z"/>
<path d="M882 2678 c-15 -15 -16 -31 0 -26 6 2 12 12 14 21 3 20 2 21 -14 5z"/>
<path d="M1646 2638 c3 -4 9 -8 15 -8 5 0 9 4 9 8 0 5 -7 9 -15 9 -8 0 -12 -4
-9 -9z"/>
<path d="M885 2629 c-4 -6 -5 -12 -2 -15 2 -3 7 2 10 11 7 17 1 20 -8 4z"/>
<path d="M855 2609 c-4 -6 -5 -12 -2 -15 2 -3 7 2 10 11 7 17 1 20 -8 4z"/>
<path d="M1635 2600 c3 -5 8 -10 11 -10 2 0 4 5 4 10 0 6 -5 10 -11 10 -5 0
-7 -4 -4 -10z"/>
<path d="M873 2568 c-2 -18 0 -20 7 -8 12 18 13 30 2 30 -4 0 -9 -10 -9 -22z"/>
<path d="M1646 2478 c3 -4 9 -8 15 -8 5 0 9 4 9 8 0 5 -7 9 -15 9 -8 0 -12 -4
-9 -9z"/>
<path d="M856 2459 c4 -7 44 0 44 7 0 2 -11 3 -24 2 -14 -1 -23 -5 -20 -9z"/>
<path d="M1635 2440 c3 -5 8 -10 11 -10 2 0 4 5 4 10 0 6 -5 10 -11 10 -5 0
-7 -4 -4 -10z"/>
<path d="M876 2427 c3 -10 9 -15 12 -12 3 3 0 11 -7 18 -10 9 -11 8 -5 -6z"/>
<path d="M855 2380 c3 -5 8 -10 11 -10 2 0 4 5 4 10 0 6 -5 10 -11 10 -5 0 -7
-4 -4 -10z"/>
<path d="M1657 2369 c7 -7 15 -10 18 -7 3 3 -2 9 -12 12 -14 6 -15 5 -6 -5z"/>
<path d="M1630 2357 c0 -2 6 -10 14 -16 11 -9 16 -9 22 1 4 7 4 10 -1 6 -4 -4
-14 -3 -22 3 -7 6 -13 9 -13 6z"/>
<path d="M880 2330 c-8 -5 -12 -12 -9 -15 4 -3 12 1 19 10 14 17 11 19 -10 5z"/>
<path d="M855 2260 c3 -5 8 -10 11 -10 2 0 4 5 4 10 0 6 -5 10 -11 10 -5 0 -7
-4 -4 -10z"/>
<path d="M882 2214 c-7 -8 -8 -14 -3 -14 10 0 25 19 20 25 -2 1 -10 -3 -17
-11z"/>
<path d="M856 2179 c4 -7 44 0 44 7 0 2 -11 3 -24 2 -14 -1 -23 -5 -20 -9z"/>
<path d="M1646 2122 c-3 -5 1 -9 9 -9 8 0 12 4 9 9 -3 4 -7 8 -9 8 -2 0 -6 -4
-9 -8z"/>
<path d="M855 2100 c3 -5 8 -10 11 -10 2 0 4 5 4 10 0 6 -5 10 -11 10 -5 0 -7
-4 -4 -10z"/>
<path d="M1657 2036 c-4 -10 -1 -13 8 -9 8 3 12 9 9 14 -7 12 -11 11 -17 -5z"/>
<path d="M860 2000 c0 -5 5 -10 11 -10 5 0 7 5 4 10 -3 6 -8 10 -11 10 -2 0
-4 -4 -4 -10z"/>
<path d="M1655 2000 c-3 -6 1 -7 9 -4 18 7 21 14 7 14 -6 0 -13 -4 -16 -10z"/>
<path d="M878 1963 c7 -3 16 -2 19 1 4 3 -2 6 -13 5 -11 0 -14 -3 -6 -6z"/>
<path d="M1639 1953 c-13 -17 -13 -17 5 -3 18 14 19 13 12 -5 -6 -16 -5 -18 5
-7 9 8 10 15 3 22 -8 8 -15 5 -25 -7z"/>
<path d="M886 1934 c-5 -14 -4 -15 9 -4 17 14 19 20 6 20 -5 0 -12 -7 -15 -16z"/>
<path d="M1665 1920 c-3 -5 -1 -10 4 -10 6 0 11 5 11 10 0 6 -2 10 -4 10 -3 0
-8 -4 -11 -10z"/>
<path d="M878 1903 c7 -3 16 -2 19 1 4 3 -2 6 -13 5 -11 0 -14 -3 -6 -6z"/>
<path d="M1650 1880 c0 -5 5 -10 11 -10 5 0 7 5 4 10 -3 6 -8 10 -11 10 -2 0
-4 -4 -4 -10z"/>
<path d="M855 1860 c-2 -3 5 -7 16 -7 10 -1 19 2 19 6 0 9 -29 10 -35 1z"/>
<path d="M1633 1845 c0 -8 4 -15 9 -15 4 0 8 4 8 9 0 6 -4 12 -8 15 -5 3 -9
-1 -9 -9z"/>
<path d="M874 1800 c0 -16 3 -30 6 -30 4 0 7 14 7 30 0 17 -3 30 -7 30 -3 0
-6 -13 -6 -30z"/>
<path d="M860 1680 c0 -5 5 -10 11 -10 5 0 7 5 4 10 -3 6 -8 10 -11 10 -2 0
-4 -4 -4 -10z"/>
<path d="M1646 1678 c3 -4 9 -8 15 -8 5 0 9 4 9 8 0 5 -7 9 -15 9 -8 0 -12 -4
-9 -9z"/>
<path d="M878 1643 c7 -3 16 -2 19 1 4 3 -2 6 -13 5 -11 0 -14 -3 -6 -6z"/>
<path d="M1635 1640 c3 -5 8 -10 11 -10 2 0 4 5 4 10 0 6 -5 10 -11 10 -5 0
-7 -4 -4 -10z"/>
<path d="M886 1614 c-5 -14 -4 -15 9 -4 17 14 19 20 6 20 -5 0 -12 -7 -15 -16z"/>
<path d="M878 1583 c7 -3 16 -2 19 1 4 3 -2 6 -13 5 -11 0 -14 -3 -6 -6z"/>
<path d="M855 1540 c-2 -3 5 -7 16 -7 10 -1 19 2 19 6 0 9 -29 10 -35 1z"/>
<path d="M1646 1518 c3 -4 9 -8 15 -8 5 0 9 4 9 8 0 5 -7 9 -15 9 -8 0 -12 -4
-9 -9z"/>
<path d="M874 1480 c0 -16 3 -30 6 -30 4 0 7 14 7 30 0 17 -3 30 -7 30 -3 0
-6 -13 -6 -30z"/>
<path d="M1635 1480 c3 -5 8 -10 11 -10 2 0 4 5 4 10 0 6 -5 10 -11 10 -5 0
-7 -4 -4 -10z"/>
<path d="M1670 1449 c0 -5 -4 -8 -8 -5 -5 3 -9 -1 -9 -8 0 -8 6 -12 14 -9 12
5 19 33 8 33 -3 0 -5 -5 -5 -11z"/>
<path d="M1660 1399 c0 -5 5 -7 10 -4 6 3 10 8 10 11 0 2 -4 4 -10 4 -5 0 -10
-5 -10 -11z"/>
<path d="M856 1339 c4 -7 44 0 44 7 0 2 -11 3 -24 2 -14 -1 -23 -5 -20 -9z"/>
<path d="M876 1307 c3 -10 9 -15 12 -12 3 3 0 11 -7 18 -10 9 -11 8 -5 -6z"/>
<path d="M1655 1261 c4 -8 2 -17 -6 -22 -9 -6 -10 -9 -2 -9 19 0 27 21 13 33
-10 9 -11 9 -5 -2z"/>
<path d="M860 1200 c0 -5 5 -10 11 -10 5 0 7 5 4 10 -3 6 -8 10 -11 10 -2 0
-4 -4 -4 -10z"/>
<path d="M1651 1198 c-1 -21 15 -32 25 -17 4 7 3 9 -4 5 -6 -3 -13 2 -15 11
-4 16 -5 16 -6 1z"/>
<path d="M878 1163 c7 -3 16 -2 19 1 4 3 -2 6 -13 5 -11 0 -14 -3 -6 -6z"/>
<path d="M1615 1160 c-3 -5 -1 -10 4 -10 6 0 11 5 11 10 0 6 -2 10 -4 10 -3 0
-8 -4 -11 -10z"/>
<path d="M886 1134 c-5 -14 -4 -15 9 -4 17 14 19 20 6 20 -5 0 -12 -7 -15 -16z"/>
<path d="M2630 1141 c0 -5 8 -15 18 -22 15 -12 16 -12 5 2 -7 9 -10 19 -6 22
3 4 1 7 -5 7 -7 0 -12 -4 -12 -9z"/>
<path d="M2610 1111 c0 -6 4 -13 10 -16 6 -3 7 1 4 9 -7 18 -14 21 -14 7z"/>
<path d="M878 1103 c7 -3 16 -2 19 1 4 3 -2 6 -13 5 -11 0 -14 -3 -6 -6z"/>
<path d="M855 1060 c-2 -3 5 -7 16 -7 10 -1 19 2 19 6 0 9 -29 10 -35 1z"/>
<path d="M874 1000 c0 -16 3 -30 6 -30 4 0 7 14 7 30 0 17 -3 30 -7 30 -3 0
-6 -13 -6 -30z"/>
<path d="M1902 959 c-9 -13 -9 -20 0 -25 7 -4 8 -3 4 5 -4 7 2 14 15 19 17 7
19 10 7 14 -8 4 -19 -2 -26 -13z"/>
<path d="M1627 959 c7 -7 15 -10 18 -7 3 3 -2 9 -12 12 -14 6 -15 5 -6 -5z"/>
<path d="M1700 959 c0 -5 5 -7 10 -4 6 3 10 8 10 11 0 2 -4 4 -10 4 -5 0 -10
-5 -10 -11z"/>
<path d="M1800 959 c0 -5 5 -7 10 -4 6 3 10 8 10 11 0 2 -4 4 -10 4 -5 0 -10
-5 -10 -11z"/>
<path d="M2040 959 c0 -5 5 -7 10 -4 6 3 10 8 10 11 0 2 -4 4 -10 4 -5 0 -10
-5 -10 -11z"/>
<path d="M2105 960 c3 -5 8 -10 11 -10 2 0 4 5 4 10 0 6 -5 10 -11 10 -5 0 -7
-4 -4 -10z"/>
<path d="M2168 963 c6 -2 9 -10 6 -15 -4 -7 -2 -8 5 -4 13 9 5 26 -12 25 -9 0
-8 -2 1 -6z"/>
<path d="M2256 953 c-6 -14 -5 -15 5 -6 7 7 10 15 7 18 -3 3 -9 -2 -12 -12z"/>
<path d="M1733 945 c0 -8 4 -12 9 -9 5 3 6 10 3 15 -9 13 -12 11 -12 -6z"/>
<path d="M2070 951 c0 -6 4 -13 10 -16 6 -3 7 1 4 9 -7 18 -14 21 -14 7z"/>
<path d="M2113 925 c0 -8 4 -12 9 -9 5 3 6 10 3 15 -9 13 -12 11 -12 -6z"/>
<path d="M856 859 c4 -7 44 0 44 7 0 2 -11 3 -24 2 -14 -1 -23 -5 -20 -9z"/>
<path d="M876 827 c3 -10 9 -15 12 -12 3 3 0 11 -7 18 -10 9 -11 8 -5 -6z"/>
<path d="M856 699 c4 -7 44 0 44 7 0 2 -11 3 -24 2 -14 -1 -23 -5 -20 -9z"/>
<path d="M876 667 c3 -10 9 -15 12 -12 3 3 0 11 -7 18 -10 9 -11 8 -5 -6z"/>
<path d="M860 560 c0 -5 5 -10 11 -10 5 0 7 5 4 10 -3 6 -8 10 -11 10 -2 0 -4
-4 -4 -10z"/>
<path d="M878 523 c7 -3 16 -2 19 1 4 3 -2 6 -13 5 -11 0 -14 -3 -6 -6z"/>
<path d="M886 494 c-5 -14 -4 -15 9 -4 17 14 19 20 6 20 -5 0 -12 -7 -15 -16z"/>
<path d="M878 463 c7 -3 16 -2 19 1 4 3 -2 6 -13 5 -11 0 -14 -3 -6 -6z"/>
<path d="M875 420 c-3 -5 -1 -10 4 -10 6 0 11 5 11 10 0 6 -2 10 -4 10 -3 0
-8 -4 -11 -10z"/>
<path d="M870 340 c0 -5 5 -10 11 -10 5 0 7 5 4 10 -3 6 -8 10 -11 10 -2 0 -4
-4 -4 -10z"/>
<path d="M790 281 c0 -6 4 -13 10 -16 6 -3 7 1 4 9 -7 18 -14 21 -14 7z"/>
<path d="M775 171 c-3 -5 -2 -12 3 -15 5 -3 9 1 9 9 0 17 -3 19 -12 6z"/>
<path d="M833 115 c0 -8 4 -12 9 -9 5 3 6 10 3 15 -9 13 -12 11 -12 -6z"/>
<path d="M891 114 c0 -11 3 -14 6 -6 3 7 2 16 -1 19 -3 4 -6 -2 -5 -13z"/>
<path d="M915 120 c-3 -5 -1 -10 4 -10 6 0 11 5 11 10 0 6 -2 10 -4 10 -3 0
-8 -4 -11 -10z"/>
<path d="M970 120 c0 -5 5 -10 11 -10 5 0 7 5 4 10 -3 6 -8 10 -11 10 -2 0 -4
-4 -4 -10z"/>
<path d="M1015 120 c-3 -5 -1 -10 4 -10 6 0 11 5 11 10 0 6 -2 10 -4 10 -3 0
-8 -4 -11 -10z"/>
<path d="M1050 116 c7 -7 13 -7 20 0 6 6 3 10 -10 10 -13 0 -16 -4 -10 -10z"/>
<path d="M1134 118 c-4 -5 -3 -12 0 -15 3 -4 6 -1 6 5 0 6 7 9 15 6 8 -4 15
-2 15 3 0 12 -29 13 -36 1z"/>
<path d="M1210 120 c0 -5 5 -10 11 -10 5 0 7 5 4 10 -3 6 -8 10 -11 10 -2 0
-4 -4 -4 -10z"/>
<path d="M1255 120 c-3 -5 -1 -10 4 -10 6 0 11 5 11 10 0 6 -2 10 -4 10 -3 0
-8 -4 -11 -10z"/>
<path d="M1290 120 c0 -5 5 -10 11 -10 5 0 7 5 4 10 -3 6 -8 10 -11 10 -2 0
-4 -4 -4 -10z"/>
<path d="M1335 120 c-3 -5 -1 -10 4 -10 6 0 11 5 11 10 0 6 -2 10 -4 10 -3 0
-8 -4 -11 -10z"/>
<path d="M1370 116 c7 -7 13 -7 20 0 6 6 3 10 -10 10 -13 0 -16 -4 -10 -10z"/>
<path d="M1454 118 c-4 -5 -3 -12 0 -15 3 -4 6 -1 6 5 0 6 7 9 15 6 8 -4 15
-2 15 3 0 12 -29 13 -36 1z"/>
<path d="M1530 120 c0 -5 5 -10 11 -10 5 0 7 5 4 10 -3 6 -8 10 -11 10 -2 0
-4 -4 -4 -10z"/>
<path d="M1575 120 c-3 -5 -1 -10 4 -10 6 0 11 5 11 10 0 6 -2 10 -4 10 -3 0
-8 -4 -11 -10z"/>
<path d="M1610 116 c7 -7 13 -7 20 0 6 6 3 10 -10 10 -13 0 -16 -4 -10 -10z"/>
<path d="M1736 122 c-3 -5 1 -9 9 -9 8 0 12 4 9 9 -3 4 -7 8 -9 8 -2 0 -6 -4
-9 -8z"/>
<path d="M1774 119 c-4 -7 -3 -9 4 -5 5 3 13 0 15 -6 4 -9 6 -10 6 -1 1 17
-16 25 -25 12z"/>
<path d="M856 103 c-6 -14 -5 -15 5 -6 7 7 10 15 7 18 -3 3 -9 -2 -12 -12z"/>
<path d="M1076 102 c-3 -4 4 -9 15 -9 23 -2 25 3 4 10 -8 4 -16 3 -19 -1z"/>
<path d="M1395 100 c-3 -5 -1 -10 4 -10 6 0 11 5 11 10 0 6 -2 10 -4 10 -3 0
-8 -4 -11 -10z"/>
<path d="M1636 102 c-3 -4 4 -9 15 -9 23 -2 25 3 4 10 -8 4 -16 3 -19 -1z"/>
<path d="M1695 100 c-3 -5 -1 -10 4 -10 6 0 11 5 11 10 0 6 -2 10 -4 10 -3 0
-8 -4 -11 -10z"/>
<path d="M1170 80 c0 -5 5 -10 11 -10 5 0 7 5 4 10 -3 6 -8 10 -11 10 -2 0 -4
-4 -4 -10z"/>
<path d="M1490 80 c0 -5 5 -10 11 -10 5 0 7 5 4 10 -3 6 -8 10 -11 10 -2 0 -4
-4 -4 -10z"/>
</g>
</svg>
